<?xml version="1.0" standalone="no"?>
<!DOCTYPE svg PUBLIC "-//W3C//DTD SVG 20010904//EN"
 "http://www.w3.org/TR/2001/REC-SVG-20010904/DTD/svg10.dtd">
<svg version="1.0" xmlns="http://www.w3.org/2000/svg"
 width="896.000000pt" height="896.000000pt" viewBox="0 0 896.000000 896.000000"
 preserveAspectRatio="xMidYMid meet">
<metadata>
Created by potrace 1.11, written by Peter Selinger 2001-2013
</metadata>
<g transform="translate(0.000000,896.000000) scale(0.100000,-0.100000)"
fill="#000000" stroke="none">
<path d="M3065 8314 c-405 -34 -619 -74 -890 -167 -1120 -381 -1930 -1332
-2124 -2492 -44 -260 -46 -324 -46 -1185 0 -734 2 -841 18 -975 58 -479 201
-910 430 -1290 485 -809 1292 -1361 2212 -1514 277 -46 283 -46 1815 -46 1533
0 1540 0 1815 46 1339 224 2392 1277 2614 2614 44 263 46 324 46 1175 0 851
-2 912 -46 1175 -220 1325 -1247 2364 -2579 2609 -270 50 -250 49 -1785 51
-792 1 -1458 1 -1480 -1z m2785 -2348 c351 -65 576 -266 621 -557 28 -182 -62
-356 -225 -433 -149 -71 -362 -63 -499 17 -94 55 -173 182 -184 294 l-6 58 27
-24 c37 -35 119 -36 147 -2 23 28 25 81 4 120 -19 38 -89 71 -149 71 -147 0
-238 -89 -238 -232 0 -91 34 -161 116 -243 74 -73 125 -101 376 -200 230 -91
288 -119 396 -191 228 -151 336 -354 336 -634 0 -264 -87 -476 -271 -661 -90
-90 -171 -146 -295 -205 -184 -87 -352 -120 -565 -111 -292 12 -526 109 -706
291 -141 142 -196 265 -196 439 -1 135 25 214 97 303 131 162 441 203 679 89
76 -37 160 -105 187 -153 l18 -30 -43 5 c-82 9 -128 -30 -129 -110 -2 -129
161 -204 267 -123 106 81 97 237 -20 351 -48 46 -179 123 -483 284 -301 158
-408 243 -480 378 -55 103 -74 197 -74 358 0 112 4 156 21 220 27 102 88 223
152 303 141 176 400 307 677 341 98 12 344 5 442 -13z m-1420 -462 l0 -436
-67 62 c-130 119 -341 200 -524 202 -84 1 -103 -3 -159 -28 -43 -19 -71 -40
-91 -67 -54 -74 -61 -206 -17 -310 69 -161 267 -169 417 -16 l51 53 0 -372 c0
-241 -4 -372 -10 -372 -5 0 -10 4 -10 9 0 5 -21 32 -46 60 -64 71 -153 114
-237 114 -143 0 -199 -81 -198 -287 1 -253 72 -591 171 -810 16 -37 30 -69 30
-70 0 -1 -101 0 -225 2 -315 6 -572 -17 -783 -69 -46 -11 -85 -19 -88 -17 -2
2 5 27 16 55 108 284 166 963 142 1645 -20 541 -54 843 -117 1044 -7 21 -6 21
66 8 397 -76 1058 -68 1534 16 55 10 110 18 123 19 l22 1 0 -436z"/>
</g>
</svg>
