<svg width="81" height="34" viewBox="0 0 81 34" fill="none" xmlns="http://www.w3.org/2000/svg">
<rect width="81" height="34" rx="10" fill="#737677"/>
<rect x="3" y="3" width="75" height="28" rx="7" fill="#211515"/>
<path d="M16.8535 15.1699C16.6621 14.9629 16.4609 14.8027 16.25 14.6895C16.0391 14.5723 15.8438 14.4883 15.6641 14.4375C15.4844 14.3828 15.334 14.3516 15.2129 14.3438C15.0918 14.332 15.0234 14.3262 15.0078 14.3262C14.8125 14.3262 14.6543 14.3516 14.5332 14.4023C14.4121 14.4492 14.3164 14.5117 14.2461 14.5898C14.1797 14.6641 14.1328 14.75 14.1055 14.8477C14.082 14.9414 14.0703 15.0371 14.0703 15.1348C14.0703 15.2285 14.0801 15.3262 14.0996 15.4277C14.123 15.5293 14.1602 15.623 14.2109 15.709C14.2617 15.791 14.3301 15.8594 14.416 15.9141C14.502 15.9688 14.6113 15.9961 14.7441 15.9961C14.752 15.9961 14.7832 15.9961 14.8379 15.9961C14.8926 15.9922 14.9609 15.9766 15.043 15.9492C15.125 15.918 15.2148 15.8672 15.3125 15.7969C15.4141 15.7227 15.5156 15.6172 15.6172 15.4805V17.8652C15.5352 17.7168 15.4453 17.5996 15.3477 17.5137C15.25 17.4277 15.1562 17.3652 15.0664 17.3262C14.9805 17.2832 14.9023 17.2578 14.832 17.25C14.7656 17.2383 14.7207 17.2324 14.6973 17.2324C14.5684 17.2324 14.4609 17.2539 14.375 17.2969C14.293 17.3398 14.2266 17.4004 14.1758 17.4785C14.1289 17.5527 14.0957 17.6445 14.0762 17.7539C14.0566 17.8594 14.0469 17.9766 14.0469 18.1055C14.0586 18.4062 14.0879 18.7168 14.1348 19.0371C14.1543 19.1738 14.1797 19.3184 14.2109 19.4707C14.2422 19.623 14.2812 19.7812 14.3281 19.9453C14.375 20.1055 14.4297 20.2676 14.4922 20.4316C14.5547 20.5918 14.627 20.75 14.709 20.9062C14.623 20.9023 14.5293 20.8965 14.4277 20.8887C14.3379 20.8809 14.2324 20.875 14.1113 20.8711C13.9941 20.8672 13.8613 20.8652 13.7129 20.8652C13.5371 20.8652 13.3457 20.8711 13.1387 20.8828C12.9316 20.8906 12.7207 20.9062 12.5059 20.9297C12.291 20.9531 12.0742 20.9844 11.8555 21.0234C11.6367 21.0664 11.4277 21.1191 11.2285 21.1816C11.3145 21.0059 11.3887 20.7832 11.4512 20.5137C11.5137 20.2441 11.5645 19.957 11.6035 19.6523C11.6465 19.3477 11.6797 19.0371 11.7031 18.7207C11.7266 18.4043 11.7441 18.1113 11.7559 17.8418C11.7676 17.5684 11.7734 17.332 11.7734 17.1328C11.7773 16.9297 11.7793 16.791 11.7793 16.7168C11.7793 16.7012 11.7773 16.6406 11.7734 16.5352C11.7734 16.4297 11.7715 16.293 11.7676 16.125C11.7637 15.957 11.7578 15.7656 11.75 15.5508C11.7422 15.332 11.7305 15.1055 11.7148 14.8711C11.7031 14.6367 11.6855 14.4004 11.6621 14.1621C11.6426 13.9238 11.6172 13.6992 11.5859 13.4883C11.5586 13.2734 11.5254 13.082 11.4863 12.9141C11.4512 12.7422 11.4082 12.6055 11.3574 12.5039C11.7324 12.582 12.1133 12.6387 12.5 12.6738C12.8906 12.7051 13.2754 12.7207 13.6543 12.7207C14.0879 12.7207 14.498 12.707 14.8848 12.6797C15.2715 12.6484 15.6113 12.6133 15.9043 12.5742C16.248 12.5312 16.5645 12.4805 16.8535 12.4219V15.1699ZM19.9883 20.9766C19.9219 20.9727 19.8438 20.9668 19.7539 20.959C19.6758 20.9551 19.584 20.9512 19.4785 20.9473C19.373 20.9434 19.252 20.9414 19.1152 20.9414C18.8613 20.9414 18.5684 20.9531 18.2363 20.9766C17.9043 20.9961 17.5449 21.0352 17.1582 21.0938C17.2324 20.9453 17.2949 20.7598 17.3457 20.5371C17.3965 20.3105 17.4375 20.0703 17.4688 19.8164C17.5039 19.5586 17.5293 19.2988 17.5449 19.0371C17.5645 18.7754 17.5781 18.5352 17.5859 18.3164C17.5938 18.0977 17.5977 17.9121 17.5977 17.7598C17.6016 17.6074 17.6035 17.5117 17.6035 17.4727C17.5957 16.9648 17.5781 16.4902 17.5508 16.0488C17.5391 15.8613 17.5234 15.6719 17.5039 15.4805C17.4883 15.2891 17.4688 15.1094 17.4453 14.9414C17.4219 14.7695 17.3945 14.6172 17.3633 14.4844C17.3359 14.3477 17.3027 14.2402 17.2637 14.1621C17.5801 14.2168 17.873 14.2539 18.1426 14.2734C18.4121 14.293 18.6562 14.3027 18.875 14.3027C19.0156 14.3027 19.1406 14.3008 19.25 14.2969C19.3633 14.2891 19.459 14.2812 19.5371 14.2734C19.6309 14.2656 19.7129 14.2559 19.7832 14.2441C19.7129 14.5957 19.6543 15.0195 19.6074 15.5156C19.5645 16.0117 19.543 16.543 19.543 17.1094C19.543 17.4336 19.5508 17.7617 19.5664 18.0938C19.582 18.4258 19.6074 18.7578 19.6426 19.0898C19.6777 19.418 19.7227 19.7422 19.7773 20.0625C19.8359 20.3789 19.9062 20.6836 19.9883 20.9766ZM17.2988 12.5977C17.2988 12.418 17.332 12.25 17.3984 12.0938C17.4688 11.9336 17.5625 11.7949 17.6797 11.6777C17.8008 11.5566 17.9414 11.4629 18.1016 11.3965C18.2617 11.3262 18.4316 11.291 18.6113 11.291C18.791 11.291 18.959 11.3262 19.1152 11.3965C19.2754 11.4629 19.4141 11.5566 19.5312 11.6777C19.6523 11.7949 19.7461 11.9336 19.8125 12.0938C19.8828 12.25 19.918 12.418 19.918 12.5977C19.918 12.7773 19.8828 12.9473 19.8125 13.1074C19.7461 13.2676 19.6523 13.4082 19.5312 13.5293C19.4141 13.6465 19.2754 13.7402 19.1152 13.8105C18.959 13.877 18.791 13.9102 18.6113 13.9102C18.4316 13.9102 18.2617 13.877 18.1016 13.8105C17.9414 13.7402 17.8008 13.6465 17.6797 13.5293C17.5625 13.4082 17.4688 13.2676 17.3984 13.1074C17.332 12.9473 17.2988 12.7773 17.2988 12.5977ZM23.6211 15.6855C23.5 15.6855 23.3906 15.7207 23.293 15.791C23.1953 15.8574 23.1074 15.9531 23.0293 16.0781C22.9551 16.1992 22.8887 16.3457 22.8301 16.5176C22.7754 16.6895 22.7305 16.8789 22.6953 17.0859C22.6953 17.418 22.7031 17.7539 22.7188 18.0938C22.7344 18.4336 22.7598 18.7695 22.7949 19.1016C22.8301 19.4336 22.875 19.7578 22.9297 20.0742C22.9883 20.3906 23.0586 20.6914 23.1406 20.9766C23.0781 20.9727 23.0059 20.9668 22.9238 20.959C22.8535 20.9551 22.7676 20.9512 22.666 20.9473C22.5684 20.9434 22.4551 20.9414 22.3262 20.9414C22.084 20.9414 21.8027 20.9531 21.4824 20.9766C21.166 20.9961 20.8145 21.0352 20.4277 21.0938C20.4746 20.875 20.5156 20.6074 20.5508 20.291C20.5859 19.9746 20.6152 19.6309 20.6387 19.2598C20.6621 18.8887 20.6797 18.502 20.6914 18.0996C20.707 17.6934 20.7148 17.293 20.7148 16.8984C20.7148 16.6055 20.7109 16.3184 20.7031 16.0371C20.6953 15.7559 20.6836 15.4902 20.668 15.2402C20.6562 14.9902 20.6387 14.7598 20.6152 14.5488C20.5918 14.3379 20.5645 14.1562 20.5332 14.0039C20.8496 14.0586 21.1367 14.0977 21.3945 14.1211C21.6562 14.1406 21.8906 14.1504 22.0977 14.1504C22.2305 14.1504 22.3477 14.1484 22.4492 14.1445C22.5508 14.1367 22.6387 14.1289 22.7129 14.1211C22.7949 14.1094 22.8691 14.0977 22.9355 14.0859C22.8887 14.2812 22.8535 14.498 22.8301 14.7363C23.0332 14.4902 23.2539 14.3086 23.4922 14.1914C23.7344 14.0742 23.9609 14.0156 24.1719 14.0156C24.5234 14.0156 24.8203 14.0801 25.0625 14.209C25.3047 14.334 25.5 14.5 25.6484 14.707C25.7969 14.9102 25.9043 15.1426 25.9707 15.4043C26.0371 15.666 26.0703 15.9316 26.0703 16.2012C26.0703 16.4629 26.0332 16.7188 25.959 16.9688C25.8848 17.2188 25.7773 17.4434 25.6367 17.6426C25.4961 17.8379 25.3223 17.9961 25.1152 18.1172C24.9082 18.2383 24.6738 18.2988 24.4121 18.2988C24.1816 18.2988 23.9844 18.2598 23.8203 18.1816C23.6602 18.1035 23.5273 18.002 23.4219 17.877C23.3164 17.752 23.2383 17.6152 23.1875 17.4668C23.1406 17.3145 23.1172 17.1641 23.1172 17.0156C23.1172 16.8594 23.1387 16.707 23.1816 16.5586C23.2285 16.4102 23.2949 16.2754 23.3809 16.1543C23.4082 16.2402 23.4414 16.3066 23.4805 16.3535C23.5234 16.3965 23.5664 16.4277 23.6094 16.4473C23.6562 16.4707 23.707 16.4844 23.7617 16.4883C23.9062 16.4883 24.0137 16.4551 24.084 16.3887C24.1582 16.3223 24.1953 16.2441 24.1953 16.1543C24.1953 16.1113 24.1875 16.0625 24.1719 16.0078C24.1562 15.9531 24.127 15.9023 24.084 15.8555C24.0449 15.8086 23.9883 15.7695 23.9141 15.7383C23.8398 15.7031 23.7422 15.6855 23.6211 15.6855ZM31.2031 15.6738C31.2031 15.8301 31.1719 15.9707 31.1094 16.0957C31.0469 16.2207 30.9629 16.3281 30.8574 16.418C30.752 16.5039 30.6289 16.5723 30.4883 16.623C30.3477 16.6699 30.1992 16.6934 30.043 16.6934C29.8633 16.6934 29.709 16.6719 29.5801 16.6289C29.4551 16.5859 29.3477 16.5312 29.2578 16.4648C29.1719 16.3945 29.1035 16.3184 29.0527 16.2363C29.002 16.1504 28.9609 16.0684 28.9297 15.9902C28.9023 15.9121 28.8848 15.8398 28.877 15.7734C28.8691 15.707 28.8652 15.6562 28.8652 15.6211C28.9004 15.6875 28.9453 15.7285 29 15.7441C29.0547 15.7598 29.0977 15.7676 29.1289 15.7676C29.2188 15.7676 29.2832 15.7441 29.3223 15.6973C29.3613 15.6504 29.3809 15.6016 29.3809 15.5508C29.3809 15.5195 29.373 15.4844 29.3574 15.4453C29.3418 15.4062 29.3145 15.3711 29.2754 15.3398C29.2363 15.3047 29.1855 15.2754 29.123 15.252C29.0605 15.2285 28.9824 15.2168 28.8887 15.2168C28.8301 15.2168 28.7676 15.2285 28.7012 15.252C28.6348 15.2754 28.5742 15.3125 28.5195 15.3633C28.4688 15.4102 28.4258 15.4707 28.3906 15.5449C28.3555 15.6152 28.3379 15.6973 28.3379 15.791C28.3379 15.9668 28.3828 16.1152 28.4727 16.2363C28.5625 16.3574 28.6797 16.4648 28.8242 16.5586C28.9727 16.6484 29.1387 16.7324 29.3223 16.8105C29.5098 16.8887 29.7012 16.9707 29.8965 17.0566C30.0918 17.1387 30.2812 17.2324 30.4648 17.3379C30.6523 17.4395 30.8184 17.5645 30.9629 17.7129C31.1113 17.8613 31.2305 18.0391 31.3203 18.2461C31.4102 18.4531 31.4551 18.6992 31.4551 18.9844C31.4551 19.3477 31.3809 19.6758 31.2324 19.9688C31.084 20.2617 30.8848 20.5137 30.6348 20.7246C30.3887 20.9316 30.1016 21.0898 29.7734 21.1992C29.4453 21.3125 29.0996 21.3691 28.7363 21.3691C28.4043 21.3691 28.0898 21.3242 27.793 21.2344C27.4961 21.1445 27.2363 21.0195 27.0137 20.8594C26.791 20.6992 26.6133 20.5098 26.4805 20.291C26.3516 20.0723 26.2871 19.8359 26.2871 19.582C26.2871 19.3906 26.3184 19.2246 26.3809 19.084C26.4434 18.9395 26.5293 18.8203 26.6387 18.7266C26.752 18.6328 26.8828 18.5625 27.0312 18.5156C27.1836 18.4688 27.3477 18.4453 27.5234 18.4453C27.6523 18.4453 27.7812 18.459 27.9102 18.4863C28.0391 18.5137 28.1602 18.5547 28.2734 18.6094C28.3867 18.6641 28.4883 18.7305 28.5781 18.8086C28.668 18.8867 28.7402 18.9766 28.7949 19.0781C28.7637 19.0703 28.7324 19.0645 28.7012 19.0605C28.6738 19.0566 28.6445 19.0547 28.6133 19.0547C28.5273 19.0547 28.459 19.0781 28.4082 19.125C28.3613 19.168 28.3379 19.2402 28.3379 19.3418C28.3379 19.4512 28.3828 19.543 28.4727 19.6172C28.5625 19.6914 28.6621 19.7285 28.7715 19.7285C28.834 19.7285 28.8926 19.7148 28.9473 19.6875C29.002 19.6602 29.0488 19.625 29.0879 19.582C29.127 19.5352 29.1562 19.4844 29.1758 19.4297C29.1992 19.375 29.2109 19.3184 29.2109 19.2598C29.2109 19.1582 29.1758 19.0488 29.1055 18.9316C29.0391 18.8145 28.9434 18.7168 28.8184 18.6387C28.5723 18.4863 28.3398 18.3555 28.1211 18.2461C27.9023 18.1367 27.7012 18.0332 27.5176 17.9355C27.334 17.8379 27.168 17.7402 27.0195 17.6426C26.875 17.5449 26.752 17.4316 26.6504 17.3027C26.5488 17.1699 26.4707 17.0156 26.416 16.8398C26.3613 16.6602 26.334 16.4434 26.334 16.1895C26.334 15.8887 26.3926 15.6113 26.5098 15.3574C26.6309 15.0996 26.8027 14.877 27.0254 14.6895C27.248 14.502 27.5215 14.3555 27.8457 14.25C28.1699 14.1406 28.5371 14.0859 28.9473 14.0859C29.3652 14.0859 29.7168 14.1348 30.002 14.2324C30.291 14.3301 30.5234 14.4551 30.6992 14.6074C30.8789 14.7598 31.0078 14.9297 31.0859 15.1172C31.1641 15.3047 31.2031 15.4902 31.2031 15.6738ZM36.5117 13.8867C36.4805 14.0625 36.457 14.2344 36.4414 14.4023C36.4297 14.5703 36.4238 14.7422 36.4238 14.918C36.4238 15.0859 36.4297 15.2559 36.4414 15.4277C36.457 15.5957 36.4805 15.7656 36.5117 15.9375C36.3242 15.8398 36.1113 15.7676 35.873 15.7207C35.6387 15.6738 35.3984 15.6367 35.1523 15.6094V16.1133C35.1523 16.5547 35.1602 17.002 35.1758 17.4551C35.1914 17.9043 35.2168 18.3418 35.252 18.7676C35.2871 19.1895 35.332 19.5898 35.3867 19.9688C35.4453 20.3477 35.5156 20.6836 35.5977 20.9766C35.5312 20.9727 35.4531 20.9668 35.3633 20.959C35.2852 20.9551 35.1934 20.9512 35.0879 20.9473C34.9824 20.9434 34.8613 20.9414 34.7246 20.9414C34.4707 20.9414 34.1777 20.9531 33.8457 20.9766C33.5137 20.9961 33.1543 21.0352 32.7676 21.0938C32.9004 20.332 32.9941 19.541 33.0488 18.7207C33.1074 17.8965 33.1367 17.0918 33.1367 16.3066V15.6094C32.8711 15.6289 32.6074 15.6602 32.3457 15.7031C32.0879 15.7422 31.8438 15.791 31.6133 15.8496C31.6289 15.8066 31.6426 15.75 31.6543 15.6797C31.666 15.6094 31.6738 15.5371 31.6777 15.4629C31.6855 15.3887 31.6895 15.3164 31.6895 15.2461C31.6934 15.1758 31.6953 15.1172 31.6953 15.0703C31.6953 14.8711 31.6875 14.6738 31.6719 14.4785C31.6562 14.2832 31.6367 14.0859 31.6133 13.8867C31.8008 13.9648 32.0234 14.0293 32.2812 14.0801C32.5391 14.127 32.8008 14.1621 33.0664 14.1855C33.043 13.8457 33.0156 13.5312 32.9844 13.2422C32.9531 12.9531 32.916 12.6914 32.873 12.457C33.1895 12.5117 33.4824 12.5488 33.752 12.5684C34.0215 12.5879 34.2656 12.5977 34.4844 12.5977C34.625 12.5977 34.75 12.5957 34.8594 12.5918C34.9727 12.584 35.0684 12.5762 35.1465 12.5684C35.2402 12.5605 35.3223 12.5508 35.3926 12.5391C35.3496 12.7266 35.3125 12.9609 35.2812 13.2422C35.2539 13.5195 35.2266 13.8301 35.1992 14.1738C35.457 14.1465 35.6992 14.1094 35.9258 14.0625C36.1562 14.0156 36.3516 13.957 36.5117 13.8867ZM44.6387 14.3145C44.6387 14.5098 44.6016 14.6875 44.5273 14.8477C44.457 15.0039 44.3574 15.1387 44.2285 15.252C44.0996 15.3652 43.9473 15.4531 43.7715 15.5156C43.5996 15.5781 43.4121 15.6094 43.209 15.6094C42.9863 15.6094 42.7949 15.582 42.6348 15.5273C42.4785 15.4727 42.3457 15.4043 42.2363 15.3223C42.1309 15.2363 42.0469 15.1426 41.9844 15.041C41.9219 14.9355 41.873 14.834 41.8379 14.7363C41.8066 14.6387 41.7852 14.5488 41.7734 14.4668C41.7656 14.3848 41.7617 14.3223 41.7617 14.2793C41.8086 14.3574 41.8633 14.4082 41.9258 14.4316C41.9883 14.4512 42.041 14.4609 42.084 14.4609C42.1934 14.4609 42.2695 14.4316 42.3125 14.373C42.3594 14.3145 42.3828 14.252 42.3828 14.1855C42.3828 14.1426 42.373 14.0977 42.3535 14.0508C42.3379 14.0039 42.3066 13.9609 42.2598 13.9219C42.2168 13.8789 42.1562 13.8438 42.0781 13.8164C42.0039 13.7891 41.9102 13.7754 41.7969 13.7754C41.7188 13.7754 41.6387 13.791 41.5566 13.8223C41.4746 13.8496 41.3984 13.8945 41.3281 13.957C41.2617 14.0156 41.207 14.0898 41.1641 14.1797C41.1211 14.2695 41.0996 14.375 41.0996 14.4961C41.0996 14.6133 41.123 14.7305 41.1699 14.8477C41.2207 14.9609 41.2871 15.0684 41.3691 15.1699C41.4551 15.2715 41.5547 15.3633 41.668 15.4453C41.7852 15.5273 41.9121 15.5957 42.0488 15.6504C42.2637 15.7402 42.4844 15.8281 42.7109 15.9141C42.9414 16 43.1641 16.0938 43.3789 16.1953C43.5938 16.2969 43.7949 16.4141 43.9824 16.5469C44.1738 16.6758 44.3398 16.8301 44.4805 17.0098C44.625 17.1895 44.7383 17.4004 44.8203 17.6426C44.9062 17.8809 44.9492 18.1602 44.9492 18.4805C44.9492 18.9375 44.8555 19.3555 44.668 19.7344C44.4844 20.1094 44.2363 20.4316 43.9238 20.7012C43.6152 20.9668 43.2559 21.1719 42.8457 21.3164C42.4395 21.4648 42.0137 21.5391 41.5684 21.5391C41.166 21.5391 40.7832 21.4785 40.4199 21.3574C40.0566 21.2402 39.7383 21.0781 39.4648 20.8711C39.1914 20.6641 38.9727 20.4219 38.8086 20.1445C38.6484 19.8633 38.5684 19.5605 38.5684 19.2363C38.5684 18.998 38.6074 18.7891 38.6855 18.6094C38.7637 18.4297 38.8711 18.2812 39.0078 18.1641C39.1484 18.043 39.3105 17.9531 39.4941 17.8945C39.6816 17.8359 39.8809 17.8066 40.0918 17.8066C40.2559 17.8066 40.416 17.8242 40.5723 17.8594C40.7324 17.8945 40.8809 17.9473 41.0176 18.0176C41.1582 18.084 41.2832 18.166 41.3926 18.2637C41.5059 18.3613 41.5957 18.4727 41.6621 18.5977C41.5801 18.5742 41.5078 18.5625 41.4453 18.5625C41.3398 18.5625 41.2559 18.5938 41.1934 18.6562C41.1309 18.7188 41.0996 18.8125 41.0996 18.9375C41.0996 19.0039 41.1152 19.0664 41.1465 19.125C41.1777 19.1797 41.2168 19.2285 41.2637 19.2715C41.3145 19.3145 41.3711 19.3477 41.4336 19.3711C41.5 19.3945 41.5684 19.4062 41.6387 19.4062C41.7168 19.4062 41.7891 19.3906 41.8555 19.3594C41.9219 19.3242 41.9805 19.2793 42.0312 19.2246C42.082 19.1699 42.1211 19.1094 42.1484 19.043C42.1758 18.9766 42.1895 18.9082 42.1895 18.8379C42.1895 18.7012 42.1465 18.5625 42.0605 18.4219C41.9785 18.2812 41.8574 18.1562 41.6973 18.0469C41.3926 17.8594 41.1055 17.6973 40.8359 17.5605C40.5664 17.4238 40.3184 17.2949 40.0918 17.1738C39.8652 17.0488 39.6602 16.9238 39.4766 16.7988C39.2969 16.6738 39.1426 16.5293 39.0137 16.3652C38.8887 16.2012 38.793 16.0098 38.7266 15.791C38.6602 15.5684 38.627 15.3008 38.627 14.9883C38.627 14.6133 38.6992 14.2617 38.8438 13.9336C38.9883 13.6055 39.1973 13.3203 39.4707 13.0781C39.748 12.832 40.0859 12.6387 40.4844 12.498C40.8828 12.3574 41.3359 12.2871 41.8438 12.2871C42.3555 12.2871 42.7891 12.3496 43.1445 12.4746C43.5 12.5957 43.7871 12.7539 44.0059 12.9492C44.2285 13.1445 44.3887 13.3633 44.4863 13.6055C44.5879 13.8438 44.6387 14.0801 44.6387 14.3145ZM48.1016 20.9766C48.0352 20.9727 47.957 20.9668 47.8672 20.959C47.7891 20.9551 47.6953 20.9512 47.5859 20.9473C47.4805 20.9434 47.3594 20.9414 47.2227 20.9414C46.9688 20.9414 46.6758 20.9531 46.3438 20.9766C46.0156 20.9961 45.6582 21.0352 45.2715 21.0938C45.3262 20.9844 45.375 20.834 45.418 20.6426C45.4609 20.4473 45.498 20.2285 45.5293 19.9863C45.5605 19.7402 45.5859 19.4805 45.6055 19.207C45.6289 18.9297 45.6465 18.6523 45.6582 18.375C45.6738 18.0977 45.6836 17.8301 45.6875 17.5723C45.6953 17.3105 45.7012 17.0762 45.7051 16.8691C45.709 16.6582 45.7109 16.4805 45.7109 16.3359C45.7109 16.1914 45.7109 16.0977 45.7109 16.0547C45.7031 15.4023 45.6855 14.7969 45.6582 14.2383C45.6465 14.0039 45.6328 13.7676 45.6172 13.5293C45.6016 13.291 45.582 13.0684 45.5586 12.8613C45.5352 12.6543 45.5078 12.4727 45.4766 12.3164C45.4492 12.1602 45.416 12.043 45.377 11.9648C45.6934 12.0195 45.9863 12.0566 46.2559 12.0762C46.5254 12.0957 46.7676 12.1055 46.9824 12.1055C47.123 12.1055 47.25 12.1035 47.3633 12.0996C47.4766 12.0918 47.5723 12.084 47.6504 12.0762C47.7441 12.0684 47.8262 12.0586 47.8965 12.0469C47.8613 12.2227 47.8281 12.4453 47.7969 12.7148C47.7695 12.9844 47.7441 13.2871 47.7207 13.623C47.7012 13.959 47.6855 14.3203 47.6738 14.707C47.6621 15.0938 47.6562 15.4922 47.6562 15.9023C47.6562 16.3711 47.6641 16.8438 47.6797 17.3203C47.6953 17.7969 47.7207 18.2578 47.7559 18.7031C47.791 19.1484 47.8359 19.5664 47.8906 19.957C47.9492 20.3438 48.0195 20.6836 48.1016 20.9766ZM51.3008 20.9766C51.2344 20.9727 51.1562 20.9668 51.0664 20.959C50.9883 20.9551 50.8965 20.9512 50.791 20.9473C50.6855 20.9434 50.5645 20.9414 50.4277 20.9414C50.1738 20.9414 49.8809 20.9531 49.5488 20.9766C49.2168 20.9961 48.8574 21.0352 48.4707 21.0938C48.5449 20.9453 48.6074 20.7598 48.6582 20.5371C48.709 20.3105 48.75 20.0703 48.7812 19.8164C48.8164 19.5586 48.8418 19.2988 48.8574 19.0371C48.877 18.7754 48.8906 18.5352 48.8984 18.3164C48.9062 18.0977 48.9102 17.9121 48.9102 17.7598C48.9141 17.6074 48.916 17.5117 48.916 17.4727C48.9082 16.9648 48.8906 16.4902 48.8633 16.0488C48.8516 15.8613 48.8359 15.6719 48.8164 15.4805C48.8008 15.2891 48.7812 15.1094 48.7578 14.9414C48.7344 14.7695 48.707 14.6172 48.6758 14.4844C48.6484 14.3477 48.6152 14.2402 48.5762 14.1621C48.8926 14.2168 49.1855 14.2539 49.4551 14.2734C49.7246 14.293 49.9688 14.3027 50.1875 14.3027C50.3281 14.3027 50.4531 14.3008 50.5625 14.2969C50.6758 14.2891 50.7715 14.2812 50.8496 14.2734C50.9434 14.2656 51.0254 14.2559 51.0957 14.2441C51.0254 14.5957 50.9668 15.0195 50.9199 15.5156C50.877 16.0117 50.8555 16.543 50.8555 17.1094C50.8555 17.4336 50.8633 17.7617 50.8789 18.0938C50.8945 18.4258 50.9199 18.7578 50.9551 19.0898C50.9902 19.418 51.0352 19.7422 51.0898 20.0625C51.1484 20.3789 51.2188 20.6836 51.3008 20.9766ZM48.6113 12.5977C48.6113 12.418 48.6445 12.25 48.7109 12.0938C48.7812 11.9336 48.875 11.7949 48.9922 11.6777C49.1133 11.5566 49.2539 11.4629 49.4141 11.3965C49.5742 11.3262 49.7441 11.291 49.9238 11.291C50.1035 11.291 50.2715 11.3262 50.4277 11.3965C50.5879 11.4629 50.7266 11.5566 50.8438 11.6777C50.9648 11.7949 51.0586 11.9336 51.125 12.0938C51.1953 12.25 51.2305 12.418 51.2305 12.5977C51.2305 12.7773 51.1953 12.9473 51.125 13.1074C51.0586 13.2676 50.9648 13.4082 50.8438 13.5293C50.7266 13.6465 50.5879 13.7402 50.4277 13.8105C50.2715 13.877 50.1035 13.9102 49.9238 13.9102C49.7441 13.9102 49.5742 13.877 49.4141 13.8105C49.2539 13.7402 49.1133 13.6465 48.9922 13.5293C48.875 13.4082 48.7812 13.2676 48.7109 13.1074C48.6445 12.9473 48.6113 12.7773 48.6113 12.5977ZM57.7637 21.082C57.6738 21.0742 57.5723 21.0664 57.459 21.0586C57.3613 21.0508 57.2461 21.0449 57.1133 21.041C56.9844 21.0371 56.8418 21.0352 56.6855 21.0352C56.4629 21.0352 56.2266 21.043 55.9766 21.0586C55.7266 21.0742 55.4785 21.1035 55.2324 21.1465C55.2559 21.0996 55.2812 21.002 55.3086 20.8535C55.3359 20.7051 55.3613 20.541 55.3848 20.3613C55.4121 20.1816 55.4355 20.0039 55.4551 19.8281C55.4785 19.6523 55.4961 19.5156 55.5078 19.418C55.4453 19.7109 55.3574 19.9785 55.2441 20.2207C55.1348 20.459 55.0059 20.6641 54.8574 20.8359C54.709 21.0039 54.543 21.1348 54.3594 21.2285C54.1758 21.3223 53.9824 21.3691 53.7793 21.3691C53.6855 21.3691 53.5703 21.3633 53.4336 21.3516C53.2969 21.3398 53.1504 21.3008 52.9941 21.2344C52.8418 21.168 52.6875 21.0664 52.5312 20.9297C52.3789 20.7891 52.2402 20.5938 52.1152 20.3438C51.9941 20.0898 51.8945 19.7695 51.8164 19.3828C51.7422 18.9961 51.7051 18.5234 51.7051 17.9648C51.7051 17.4961 51.7383 17.0781 51.8047 16.7109C51.875 16.3398 51.9668 16.0137 52.0801 15.7324C52.1973 15.4512 52.332 15.2129 52.4844 15.0176C52.6406 14.8184 52.8027 14.6562 52.9707 14.5312C53.1426 14.4062 53.3164 14.3164 53.4922 14.2617C53.6719 14.2031 53.8438 14.1738 54.0078 14.1738C54.1914 14.1738 54.3574 14.2051 54.5059 14.2676C54.6543 14.3262 54.7891 14.4043 54.9102 14.502C55.0312 14.5957 55.1367 14.7051 55.2266 14.8301C55.3164 14.9512 55.3945 15.0723 55.4609 15.1934C55.4531 15.0137 55.4453 14.8184 55.4375 14.6074C55.4297 14.3965 55.4199 14.1836 55.4082 13.9688C55.3965 13.7539 55.3809 13.543 55.3613 13.3359C55.3457 13.125 55.3262 12.9297 55.3027 12.75C55.2832 12.5703 55.2598 12.4121 55.2324 12.2754C55.2051 12.1387 55.1738 12.0352 55.1387 11.9648C55.4512 12.0195 55.7422 12.0566 56.0117 12.0762C56.2812 12.0957 56.5254 12.1055 56.7441 12.1055C56.8848 12.1055 57.0117 12.1035 57.125 12.0996C57.2383 12.0918 57.334 12.084 57.4121 12.0762C57.5059 12.0684 57.5879 12.0586 57.6582 12.0469C57.6152 12.2422 57.5762 12.498 57.541 12.8145C57.5059 13.127 57.4746 13.4805 57.4473 13.875C57.4238 14.2695 57.4043 14.6934 57.3887 15.1465C57.377 15.5957 57.3711 16.0547 57.3711 16.5234C57.3711 16.957 57.377 17.3887 57.3887 17.8184C57.4043 18.248 57.4277 18.6621 57.459 19.0605C57.4902 19.4551 57.5312 19.8262 57.582 20.1738C57.6328 20.5176 57.6934 20.8203 57.7637 21.082ZM55.3555 17.7246V16.7754C55.3555 16.6699 55.3496 16.5625 55.3379 16.4531C55.3262 16.3438 55.2988 16.2441 55.2559 16.1543C55.2168 16.0645 55.1582 15.9922 55.0801 15.9375C55.002 15.8789 54.8965 15.8496 54.7637 15.8496C54.6699 15.8496 54.5898 15.8867 54.5234 15.9609C54.457 16.0352 54.4023 16.1309 54.3594 16.248C54.3164 16.3652 54.2812 16.4961 54.2539 16.6406C54.2266 16.7852 54.207 16.9297 54.1953 17.0742C54.1836 17.2148 54.1758 17.3477 54.1719 17.4727C54.168 17.5938 54.166 17.6895 54.166 17.7598C54.166 17.8652 54.1699 17.9961 54.1777 18.1523C54.1895 18.3047 54.2129 18.4531 54.248 18.5977C54.2832 18.7383 54.3359 18.8594 54.4062 18.9609C54.4805 19.0625 54.5801 19.1133 54.7051 19.1133C54.8457 19.1133 54.959 19.0645 55.0449 18.9668C55.1309 18.8691 55.1953 18.748 55.2383 18.6035C55.2852 18.459 55.3164 18.3086 55.332 18.1523C55.3477 17.9922 55.3555 17.8496 55.3555 17.7246ZM63.2832 15.5508C63.2832 15.8438 63.2402 16.1289 63.1543 16.4062C63.0723 16.6836 62.9258 16.9297 62.7148 17.1445C62.5039 17.3594 62.2188 17.5312 61.8594 17.6602C61.5039 17.7891 61.0508 17.8535 60.5 17.8535C60.5156 18.0449 60.5547 18.2051 60.6172 18.334C60.6836 18.4629 60.7617 18.5664 60.8516 18.6445C60.9414 18.7227 61.0371 18.7812 61.1387 18.8203C61.2402 18.8594 61.334 18.8867 61.4199 18.9023C61.5059 18.918 61.5781 18.9258 61.6367 18.9258C61.6953 18.9258 61.7246 18.9258 61.7246 18.9258C61.9668 18.8984 62.1836 18.8359 62.375 18.7383C62.457 18.6992 62.5371 18.6504 62.6152 18.5918C62.6934 18.5293 62.7637 18.457 62.8262 18.375C62.8926 18.2891 62.9453 18.1934 62.9844 18.0879C63.0273 17.9785 63.0527 17.8535 63.0605 17.7129C63.1621 17.9668 63.2324 18.2051 63.2715 18.4277C63.3145 18.6465 63.3359 18.8516 63.3359 19.043C63.3359 19.3945 63.2715 19.7188 63.1426 20.0156C63.0176 20.3086 62.8438 20.5625 62.6211 20.7773C62.3984 20.9922 62.1328 21.1582 61.8242 21.2754C61.5195 21.3965 61.1875 21.457 60.8281 21.457C60.4766 21.457 60.1367 21.3965 59.8086 21.2754C59.4844 21.1543 59.1953 20.9629 58.9414 20.7012C58.6914 20.4355 58.4902 20.0918 58.3379 19.6699C58.1895 19.248 58.1152 18.7363 58.1152 18.1348C58.1152 17.4824 58.209 16.9043 58.3965 16.4004C58.584 15.8965 58.8359 15.4746 59.1523 15.1348C59.4688 14.791 59.834 14.5312 60.248 14.3555C60.666 14.1758 61.1035 14.0859 61.5605 14.0859C61.7871 14.0859 62.0039 14.1113 62.2109 14.1621C62.4219 14.2129 62.6055 14.2969 62.7617 14.4141C62.9219 14.5312 63.0488 14.6836 63.1426 14.8711C63.2363 15.0547 63.2832 15.2812 63.2832 15.5508ZM60.4766 16.8867C60.5859 16.8828 60.7129 16.8613 60.8574 16.8223C61.002 16.7793 61.1387 16.7207 61.2676 16.6465C61.3965 16.5723 61.5039 16.4805 61.5898 16.3711C61.6797 16.2617 61.7246 16.1367 61.7246 15.9961C61.7246 15.9062 61.6934 15.834 61.6309 15.7793C61.5684 15.7246 61.4883 15.6973 61.3906 15.6973C61.2539 15.6973 61.1309 15.7363 61.0215 15.8145C60.916 15.8926 60.8242 15.9902 60.7461 16.1074C60.6719 16.2246 60.6113 16.3535 60.5645 16.4941C60.5176 16.6348 60.4883 16.7656 60.4766 16.8867ZM66.9688 15.6855C66.8477 15.6855 66.7383 15.7207 66.6406 15.791C66.543 15.8574 66.4551 15.9531 66.377 16.0781C66.3027 16.1992 66.2363 16.3457 66.1777 16.5176C66.123 16.6895 66.0781 16.8789 66.043 17.0859C66.043 17.418 66.0508 17.7539 66.0664 18.0938C66.082 18.4336 66.1074 18.7695 66.1426 19.1016C66.1777 19.4336 66.2227 19.7578 66.2773 20.0742C66.3359 20.3906 66.4062 20.6914 66.4883 20.9766C66.4258 20.9727 66.3535 20.9668 66.2715 20.959C66.2012 20.9551 66.1152 20.9512 66.0137 20.9473C65.916 20.9434 65.8027 20.9414 65.6738 20.9414C65.4316 20.9414 65.1504 20.9531 64.8301 20.9766C64.5137 20.9961 64.1621 21.0352 63.7754 21.0938C63.8223 20.875 63.8633 20.6074 63.8984 20.291C63.9336 19.9746 63.9629 19.6309 63.9863 19.2598C64.0098 18.8887 64.0273 18.502 64.0391 18.0996C64.0547 17.6934 64.0625 17.293 64.0625 16.8984C64.0625 16.6055 64.0586 16.3184 64.0508 16.0371C64.043 15.7559 64.0312 15.4902 64.0156 15.2402C64.0039 14.9902 63.9863 14.7598 63.9629 14.5488C63.9395 14.3379 63.9121 14.1562 63.8809 14.0039C64.1973 14.0586 64.4844 14.0977 64.7422 14.1211C65.0039 14.1406 65.2383 14.1504 65.4453 14.1504C65.5781 14.1504 65.6953 14.1484 65.7969 14.1445C65.8984 14.1367 65.9863 14.1289 66.0605 14.1211C66.1426 14.1094 66.2168 14.0977 66.2832 14.0859C66.2363 14.2812 66.2012 14.498 66.1777 14.7363C66.3809 14.4902 66.6016 14.3086 66.8398 14.1914C67.082 14.0742 67.3086 14.0156 67.5195 14.0156C67.8711 14.0156 68.168 14.0801 68.4102 14.209C68.6523 14.334 68.8477 14.5 68.9961 14.707C69.1445 14.9102 69.252 15.1426 69.3184 15.4043C69.3848 15.666 69.418 15.9316 69.418 16.2012C69.418 16.4629 69.3809 16.7188 69.3066 16.9688C69.2324 17.2188 69.125 17.4434 68.9844 17.6426C68.8438 17.8379 68.6699 17.9961 68.4629 18.1172C68.2559 18.2383 68.0215 18.2988 67.7598 18.2988C67.5293 18.2988 67.332 18.2598 67.168 18.1816C67.0078 18.1035 66.875 18.002 66.7695 17.877C66.6641 17.752 66.5859 17.6152 66.5352 17.4668C66.4883 17.3145 66.4648 17.1641 66.4648 17.0156C66.4648 16.8594 66.4863 16.707 66.5293 16.5586C66.5762 16.4102 66.6426 16.2754 66.7285 16.1543C66.7559 16.2402 66.7891 16.3066 66.8281 16.3535C66.8711 16.3965 66.9141 16.4277 66.957 16.4473C67.0039 16.4707 67.0547 16.4844 67.1094 16.4883C67.2539 16.4883 67.3613 16.4551 67.4316 16.3887C67.5059 16.3223 67.543 16.2441 67.543 16.1543C67.543 16.1113 67.5352 16.0625 67.5195 16.0078C67.5039 15.9531 67.4746 15.9023 67.4316 15.8555C67.3926 15.8086 67.3359 15.7695 67.2617 15.7383C67.1875 15.7031 67.0898 15.6855 66.9688 15.6855Z" fill="#EBF3F7"/>
</svg>
